<svg width="11" height="12" viewBox="0 0 11 12" fill="none" xmlns="http://www.w3.org/2000/svg">
<path d="M3.8959 0.321716C3.70799 0.922705 3.19636 2.00265 1.80495 3.43491C-0.595437 5.90883 -0.913548 9.89415 2.7746 11.8539C3.07739 12.0147 3.33014 11.9157 3.52009 11.717C4.14814 11.0614 4.42081 10.0994 4.33911 8.83208C4.31613 8.48282 4.47187 8.39193 4.78028 8.6309C5.65496 9.30797 6.22582 10.3511 6.22582 11.4725C6.22582 11.8539 6.37849 12.0556 6.73439 11.9866C9.08626 11.5307 11.9523 8.15858 8.86364 3.22097C8.6788 2.96975 8.40562 2.96975 8.41021 3.31492C8.41532 3.73873 8.36681 4.16151 8.2652 4.57307C8.19525 4.85901 7.92615 4.85493 7.86284 4.57307C7.47784 2.85792 6.4076 1.40013 4.6516 0.197126C4.17776 -0.127112 4.00568 -0.0275427 3.8959 0.322226V0.321716Z" fill="#FF4438"/>
</svg>
